<?xml version="1.0" encoding="UTF-8"?>
<svg fill="none" viewBox="0 0 45 57" xmlns="http://www.w3.org/2000/svg">
<path d="m22.02 5.7422c-0.2906 0-0.571-0.04431-0.835-0.12647v3.98h1.6699v-3.98c-0.2639 0.08227-0.5444 0.12647-0.8349 0.12647z" fill="#135693"/>
<path d="m22.02 5.8536c1.6164 0 2.9268-1.3104 2.9268-2.9268 0-1.6164-1.3104-2.9268-2.9268-2.9268-1.6165 0-2.9268 1.3104-2.9268 2.9268 0 1.6164 1.3103 2.9268 2.9268 2.9268z" fill="#6BC1DD"/>
<g opacity=".15">
<path d="m21.557 2.9268c0-1.1762 0.6942-2.1898 1.6951-2.6551-0.3746-0.17401-0.7916-0.27175-1.2318-0.27175-1.6165 0-2.9268 1.3104-2.9268 2.9268 0 1.6164 1.3103 2.9267 2.9268 2.9267 0.4402 0 0.8572-0.09775 1.2318-0.27175-1.0009-0.46513-1.6951-1.4788-1.6951-2.655z" fill="#440075" opacity=".15"/>
</g>
<path d="m40.676 14.164h-1.7259v15.922h1.7259c0.9461 0 1.7203-0.7741 1.7203-1.7202v-12.482c0-0.9461-0.7742-1.7202-1.7203-1.7202z" fill="#9EA7AF"/>
<path d="m5.0903 14.164h-1.8398c-0.94618 0-1.7202 0.7741-1.7202 1.7202v12.481c0 0.9462 0.77407 1.7203 1.7202 1.7203h1.8397l1.1e-4 -15.922z" fill="#9EA7AF"/>
<path d="m6.2634 50.916h-2.3642c-0.80713 0-1.5569-0.2452-2.179-0.6653v5.602c0 0.6308 0.51612 1.1469 1.1469 1.1469h3.3963v-6.0836z" fill="#C5CCD3"/>
<path d="m40.141 50.916h-2.364v6.0837h3.3962c0.6308 0 1.1469-0.5161 1.1469-1.1469v-5.6019c-0.6222 0.4198-1.372 0.6651-2.1791 0.6651z" fill="#C5CCD3"/>
<path d="m4.1287 55.853v-4.9369h-0.22945c-0.80713 0-1.5569-0.2452-2.179-0.6653v5.602c0 0.6308 0.51612 1.1469 1.1469 1.1469h2.4085c-0.63079 2e-4 -1.1469-0.516-1.1469-1.1467z" fill="#440075" opacity=".15"/>
<path d="m6.2635 42.149h-2.3642c-2.1535 0-3.8994 1.7458-3.8994 3.8993v1.1469c0 2.1536 1.746 3.8993 3.8994 3.8993h2.364l1.1e-4 -8.9455z" fill="#E6E9ED"/>
<path d="m40.141 42.148h-2.364v8.9457h2.364c2.1537 0 3.8994-1.7458 3.8994-3.8993v-1.1469c0-2.1537-1.7459-3.8995-3.8994-3.8995z" fill="#E6E9ED"/>
<g opacity=".15">
<path d="m2.7526 47.194v-1.1469c0-2.1536 1.7458-3.8994 3.8994-3.8994h-2.7526c-2.1535 0-3.8994 1.7459-3.8994 3.8994v1.1469c0 2.1536 1.746 3.8993 3.8994 3.8993h2.7526c-2.1536 0-3.8994-1.7457-3.8994-3.8993z" fill="#440075" opacity=".15"/>
</g>
<path d="m25.828 34.517h-7.6137v2.8451h7.6137v-2.8451z" fill="#9EA7AF"/>
<path d="m20.988 34.517h-2.7744v2.8451h2.7744v-2.8451z" fill="#440075" opacity=".15"/>
<path d="m30.976 40.078v-1.8508c0-0.544-0.4451-0.9891-0.989-0.9891h-16.268c-0.5441 0-0.9892 0.4451-0.9892 0.9891v1.8508h18.246z" fill="#C5CCD3"/>
<path d="m16.16 40.078v-1.8508c0-0.544 0.445-0.9891 0.9892-0.9891h-3.4302c-0.5441 0-0.9892 0.4451-0.9892 0.9891v1.8508h3.4302z" fill="#440075" opacity=".15"/>
<path d="m36.168 39.883h-28.295c-0.94618 0-1.7204 0.7742-1.7204 1.7204v15.397h31.736v-15.397c0-0.9462-0.774-1.7204-1.7203-1.7204z" fill="#9EA7AF"/>
<g opacity=".15">
<path d="m11.157 39.883h-3.285c-0.94618 0-1.7204 0.7742-1.7204 1.7204v15.397h3.285v-15.397c0-0.9462 0.77414-1.7204 1.7203-1.7204z" fill="#440075" opacity=".15"/>
</g>
<path d="m39.061 32.929c0 0.9462-0.7742 1.7202-1.7202 1.7202h-30.642c-0.94607 0-1.7202-0.774-1.7202-1.7202v-21.725c0-0.9462 0.77418-1.7202 1.7202-1.7202h30.642c0.946 0 1.7202 0.77402 1.7202 1.7202v21.725z" fill="#C5CCD3"/>
<g opacity=".15">
<path d="m8.2575 32.929v-21.725c0-0.9462 0.77417-1.7202 1.7204-1.7202h-3.2786c-0.94606 0-1.7202 0.77402-1.7202 1.7202v21.725c0 0.9462 0.77418 1.7202 1.7202 1.7202h3.2786c-0.94618-1e-4 -1.7204-0.7741-1.7204-1.7203z" fill="#440075" opacity=".15"/>
</g>
<path d="m34.99 22.1c0 3.2819-2.6604 5.9418-5.942 5.9418h-14.056c-3.2818 0-5.9421-2.6601-5.9421-5.9418s2.6603-5.9418 5.9421-5.9418h14.056c3.2816 0 5.942 2.6601 5.942 5.9418z" fill="#135693"/>
<g opacity=".15">
<path d="m12.386 22.1c0-3.2817 2.6603-5.9418 5.9421-5.9418h-3.3364c-3.2818 0-5.9421 2.6602-5.9421 5.9418 0 3.2819 2.6603 5.9418 5.9421 5.9418h3.3364c-3.2818 0-5.9421-2.6601-5.9421-5.9418z" fill="#440075" opacity=".15"/>
</g>
<path d="m14.399 24.42c1.2761 0 2.3105-1.0385 2.3105-2.3196s-1.0344-2.3196-2.3105-2.3196c-1.276 0-2.3105 1.0385-2.3105 2.3196s1.0345 2.3196 2.3105 2.3196z" fill="#6BC1DD"/>
<path d="m29.686 24.42c1.2761 0 2.3105-1.0385 2.3105-2.3196s-1.0344-2.3196-2.3105-2.3196c-1.276 0-2.3105 1.0385-2.3105 2.3196s1.0345 2.3196 2.3105 2.3196z" fill="#6BC1DD"/>
<path d="m32.27 57v-9.9984c0-0.6307-0.5161-1.1469-1.1469-1.1469h-18.207c-0.6308 0-1.1469 0.5162-1.1469 1.1469v9.9984h20.5z" fill="#135693"/>
<path d="m24.084 57v-3.2247c0-0.1893-0.1548-0.3441-0.344-0.3441h-3.4407c-0.1891 0-0.344 0.1548-0.344 0.3441v3.2247h4.1287z" fill="#FFC502"/>
<path d="m17.204 49.444h-2.6378c-0.4613 0-0.835-0.3737-0.835-0.8349 0-0.4613 0.3737-0.835 0.835-0.835h2.6378c0.4612 0 0.8349 0.3737 0.8349 0.835 0 0.4611-0.3737 0.8349-0.8349 0.8349z" fill="#C5CCD3"/>
<path d="m16.056 51.482h-1.491c-0.4612 0-0.8349-0.3737-0.8349-0.8349 0-0.4613 0.3737-0.835 0.8349-0.835h1.491c0.4613 0 0.835 0.3737 0.835 0.835 0 0.4612-0.3738 0.8349-0.835 0.8349z" fill="#C5CCD3"/>
<path d="m17.203 53.522h-2.6378c-0.4612 0-0.8349-0.3739-0.8349-0.835 0-0.4612 0.3737-0.8349 0.8349-0.8349h2.6378c0.4613 0 0.835 0.3737 0.835 0.8349 0 0.4613-0.3737 0.835-0.835 0.835z" fill="#C5CCD3"/>
<path d="m15.712 55.56h-1.1469c-0.4612 0-0.8349-0.3738-0.8349-0.835 0-0.4611 0.3737-0.835 0.8349-0.835h1.1469c0.4613 0 0.835 0.3739 0.835 0.835 0 0.4612-0.3738 0.835-0.835 0.835z" fill="#C5CCD3"/>
<path d="m29.096 54.721h-2.0359c-0.4831 0-0.8745-0.3915-0.8745-0.8747 0-0.4831 0.3915-0.8746 0.8745-0.8746h2.0359c0.4831 0 0.8747 0.3916 0.8747 0.8746 0 0.4833-0.3916 0.8747-0.8747 0.8747z" fill="#E6E9ED"/>
<path d="m28.079 51.69c1.0145 0 1.8369-0.8224 1.8369-1.8369s-0.8224-1.8369-1.8369-1.8369-1.8369 0.8224-1.8369 1.8369 0.8224 1.8369 1.8369 1.8369z" fill="#5DC647"/>
<path d="m24.136 50.813c0 0.194-0.1586 0.3525-0.3525 0.3525h-3.5255c-0.1938 0-0.3525-0.1585-0.3525-0.3525v-1.922c0-0.1939 0.1587-0.3525 0.3525-0.3525h3.5255c0.1939 0 0.3525 0.1586 0.3525 0.3525v1.922z" fill="#6BC1DD"/>
</svg>
